<svg height="496pt" viewBox="-80 0 496 496" width="496pt" xmlns="http://www.w3.org/2000/svg" xmlns:xlink="http://www.w3.org/1999/xlink"><linearGradient id="a" gradientUnits="userSpaceOnUse" x1="168" x2="168" y1="496" y2="0"><stop offset="0" stop-color="#9f2fff"/><stop offset="1" stop-color="#0bb1d3"/></linearGradient><path d="m336 370.601562c0-24.144531-15.390625-45.496093-38.289062-53.128906l-81.710938-27.242187v-16.574219c17.679688-11.558594 30.910156-29.304688 36.710938-50.136719 19.816406-2.359375 35.289062-19.078125 35.289062-39.519531v-64c0-66.167969-53.832031-120-120-120s-120 53.832031-120 120v64c0 20.441406 15.472656 37.160156 35.289062 39.519531 5.789063 20.839844 19.03125 38.578125 36.710938 50.136719v16.574219l-81.710938 27.234375c-22.898437 7.640625-38.289062 28.992187-38.289062 53.136718v125.398438h336zm-91.28125-53.929687-23.285156 46.585937-40.890625-35.042968 29.066406-23.246094zm-85.941406 83.328125h18.445312l13.335938 80h-45.117188zm18.671875-16h-18.890625l-6.375-31.902344 15.816406-13.5625 15.824219 13.5625zm10.597656-170.96875-20.046875-15.03125-20.046875 15.03125 4.878906-24.40625-21.71875-16.289062 26.703125-5.335938 10.183594-25.464844 10.175781 25.457032 26.703125 5.335937-21.71875 16.289063zm-92.046875-49.992188v-19.039062h53.785156l-3.601562 9zm93.824219-10.039062-3.609375-9h53.785156v19.039062zm65.839843 53.632812c.167969-2.199218.335938-4.394531.335938-6.632812v-38.527344c9.289062 3.3125 16 12.113282 16 22.527344 0 10.535156-6.871094 19.414062-16.335938 22.632812zm-87.664062-190.632812c57.34375 0 104 46.65625 104 104v32.207031c-4.671875-3.535156-10.054688-6.183593-16-7.390625v-16.816406h-76.183594l-11.816406-29.535156-11.816406 29.535156h-76.183594v16.808594c-5.945312 1.214844-11.328125 3.855468-16 7.390625v-32.199219c0-57.34375 46.65625-104 104-104zm-104 168c0-10.414062 6.710938-19.214844 16-22.527344v38.527344c0 2.238281.167969 4.433594.335938 6.632812-9.464844-3.21875-16.335938-12.097656-16.335938-22.632812zm32 16v-34l39.167969 29.375-11.121094 55.59375 43.953125-32.96875 43.953125 32.96875-11.121094-55.59375 39.167969-29.375v34c0 39.695312-32.296875 72-72 72s-72-32.304688-72-72zm72 88c11.296875 0 22.0625-2.214844 32-6.113281v10.265625l-32 25.601562-32-25.601562v-10.265625c9.9375 3.898437 20.703125 6.113281 32 6.113281zm-41.601562 16.96875 29.066406 23.246094-40.890625 35.042968-23.285157-46.585937zm-110.398438 65.632812c0-17.25 10.992188-32.496093 27.351562-37.953124l32.59375-10.863282 33.480469 66.957032 28.820313-24.703126 5.617187 28.089844-14.640625 87.871094h-57.222656v-88h-16v88h-40zm304 109.398438h-40v-88h-16v88h-57.222656l-14.648438-87.878906 5.613282-28.089844 28.824218 24.703125 33.480469-66.957031 32.59375 10.863281c16.367187 5.464844 27.359375 20.710937 27.359375 37.960937zm0 0" fill="url(#a)"/></svg>